<?xml version="1.0" encoding="UTF-8" standalone="no"?>
<svg
   width="100"
   height="100"
   version="1.1"
   id="svg1"
   sodipodi:docname="mobile.svg"
   inkscape:version="1.4.2 (f4327f4, 2025-05-13)"
   xmlns:inkscape="http://www.inkscape.org/namespaces/inkscape"
   xmlns:sodipodi="http://sodipodi.sourceforge.net/DTD/sodipodi-0.dtd"
   xmlns="http://www.w3.org/2000/svg"
   xmlns:svg="http://www.w3.org/2000/svg">
  <sodipodi:namedview
     id="namedview1"
     pagecolor="#ffffff"
     bordercolor="#000000"
     borderopacity="0.25"
     inkscape:showpageshadow="2"
     inkscape:pageopacity="0.0"
     inkscape:pagecheckerboard="0"
     inkscape:deskcolor="#d1d1d1"
     inkscape:zoom="6.3671875"
     inkscape:cx="34.47362"
     inkscape:cy="39.185276"
     inkscape:window-width="1920"
     inkscape:window-height="1017"
     inkscape:window-x="-8"
     inkscape:window-y="-8"
     inkscape:window-maximized="1"
     inkscape:current-layer="g1" />
  <!-- 手机主体轮廓 -->
  <defs
     id="defs1">
    <filter
       height="3.4518732"
       id="svg_7_blur"
       width="3.5299821"
       x="-1.2649755"
       y="-1.2262194">
      <feGaussianBlur
         in="SourceGraphic"
         stdDeviation="4.5"
         id="feGaussianBlur1" />
    </filter>
  </defs>
  <!-- 手机屏幕 -->
  <!-- 手机顶部听筒 -->
  <!-- 动态箭头（体现移动功能） -->
  <!-- 手机底部home键（简化设计） -->
  <g
     class="layer"
     id="g1"
     transform="matrix(1.4302326,0,0,1.4531002,-22.841504,-15.982097)">
    <title
       id="title1">Layer 1</title>
    <path
       d="m 46.437759,57.979894 c 0.806128,-0.803173 1.402659,-1.803034 1.90246,-2.819293 0.306327,-0.409783 0.0162,-0.77039 -0.403066,-0.409783 -1.064083,0.721216 -2.515114,0.967081 -3.659815,0.311435 -1.30592,-0.688438 -1.88633,-2.311165 -1.596126,-3.720813 0.193475,-1.442426 1.209185,-2.557035 2.321642,-3.360201 1.273683,-0.934305 2.660219,-1.737475 3.837162,-2.802907 0.483678,0.01659 0.854491,0.786781 1.386537,0.999867 1.402659,1.065432 3.047156,1.835817 4.159609,3.245469 0.548162,0.803165 0.870617,1.803032 0.902857,2.786509 -0.177343,1.327686 -0.951226,2.737337 -2.289395,3.114337 -1.160818,0.360607 -2.353885,-0.0983 -3.369605,-0.672045 -0.128983,-0.03256 -0.58041,-0.393382 -0.403064,-0.11478 0.612655,1.262123 1.273679,2.524247 2.22491,3.540508 0.0643,0.131125 0.499796,0.442559 0.25796,0.426171 -1.966951,0 -3.950019,0 -5.916967,0 0.209593,-0.163911 0.419188,-0.344218 0.628781,-0.508129 z"
       fill="#f5f5f5"
       id="svg_10"
       stroke="#dddddd"
       style="stroke-width:1.62563" />
    <rect
       fill="#ffffff"
       height="65.564972"
       id="svg_1"
       rx="6.4490099"
       ry="6.5564985"
       stroke="#333333"
       stroke-width="3.25124"
       width="38.694054"
       x="26.703796"
       y="12.625327" />
    <rect
       fill="#f5f5f5"
       height="52.451988"
       id="svg_2"
       rx="1.6122525"
       ry="1.6391246"
       stroke="#dddddd"
       width="32.245041"
       x="29.928301"
       y="19.181829"
       style="stroke-width:1.62563;fill:#c6c6c6;fill-opacity:1" />
    <rect
       fill="#333333"
       height="1.6391246"
       id="svg_3"
       rx="0.80612624"
       ry="0.81956232"
       width="12.89802"
       x="39.601799"
       y="15.903579"
       style="stroke-width:1.62563" />
    <path
       d="M 62.173343,45.407809 H 78.295864"
       id="svg_4"
       stroke="#333333"
       stroke-linecap="round"
       stroke-width="3.25124" />
    <path
       d="m 78.295864,45.407809 -6.449009,-6.556496 m 6.449009,6.556496 -6.449009,6.556498"
       id="svg_5"
       stroke="#333333"
       stroke-linecap="round"
       stroke-width="3.25124" />
    <ellipse
       cx="46.050819"
       cy="74.912041"
       fill="#333333"
       id="svg_6"
       rx="3.2245049"
       ry="3.2782493"
       style="stroke-width:1.62563" />
    <path
       d="m 29.82,35.24 c 0.57,-0.55 0.99,-1.24 1.34,-1.95 0.21,-0.28 0.01,-0.53 -0.28,-0.29 -0.75,0.5 -1.77,0.67 -2.58,0.21 -0.92,-0.47 -1.33,-1.59 -1.12,-2.57 0.13,-0.99 0.86,-1.77 1.64,-2.32 0.9,-0.64 1.88,-1.19 2.7,-1.94 0.34,0.01 0.6,0.54 0.97,0.69 0.98,0.73 2.15,1.27 2.93,2.24 0.39,0.56 0.61,1.24 0.64,1.92 -0.12,0.92 -0.67,1.89 -1.62,2.15 -0.82,0.25 -1.66,-0.07 -2.38,-0.46 -0.09,-0.02 -0.41,-0.27 -0.28,-0.07 0.43,0.87 0.89,1.74 1.57,2.45 0.04,0.09 0.35,0.3 0.19,0.3 -1.39,0 -2.78,0 -4.17,0 0.15,-0.12 0.3,-0.23 0.45,-0.35 z"
       fill="#f5f5f5"
       filter="url(#svg_7_blur)"
       id="svg_7"
       stroke="#dddddd"
       transform="matrix(1.6122521,0,0,1.6391245,-5.5412496,-7.0441611)" />
    <path
       d="m 43.729171,52.488828 c 0.870619,-0.852344 1.499404,-1.917776 2.031441,-2.999598 0.322451,-0.426173 0.01619,-0.819561 -0.419184,-0.442563 -1.128578,0.77039 -2.676338,1.032644 -3.901654,0.32782 -1.386534,-0.72121 -2.015311,-2.458681 -1.692863,-3.966678 0.19347,-1.524385 1.289805,-2.720943 2.482871,-3.589683 1.370414,-0.999863 2.837562,-1.852205 4.078998,-2.999592 0.515918,0.01659 0.918982,0.835951 1.46715,1.06543 1.48327,1.130991 3.256749,1.950562 4.41757,3.458553 0.596532,0.852342 0.935105,1.91777 0.967349,2.966808 -0.177346,1.409652 -1.015715,2.917643 -2.450623,3.311038 -1.241432,0.376993 -2.515109,-0.09831 -3.595319,-0.721216 -0.128977,-0.03257 -0.612654,-0.409785 -0.419186,-0.114784 0.644902,1.344086 1.354291,2.688162 2.370011,3.769992 0.06429,0.131125 0.532041,0.45895 0.274082,0.45895 -2.095927,0 -4.207978,0 -6.303904,0 0.22571,-0.180301 0.451427,-0.360609 0.677145,-0.540909 z"
       fill="#aaaaff"
       id="svg_12"
       stroke="#dddddd"
       style="fill:#e34810;fill-opacity:1;stroke-width:1.62563" />
  </g>
</svg>
